<svg width="60" height="60" viewBox="0 0 60 60" fill="none" xmlns="http://www.w3.org/2000/svg">
<path d="M11.25 32.7158V48.7498C11.25 49.2471 11.4475 49.724 11.7992 50.0757C12.1508 50.4273 12.6277 50.6248 13.125 50.6248H46.875C47.3723 50.6248 47.8492 50.4273 48.2008 50.0757C48.5525 49.724 48.75 49.2471 48.75 48.7498V32.7162" stroke="white" stroke-width="2" stroke-linecap="round" stroke-linejoin="round"/>
<path d="M12.6643 9.375H47.3357C47.7431 9.375 48.1395 9.50773 48.4648 9.7531C48.7901 9.99847 49.0266 10.3431 49.1385 10.7349L52.5 22.5H7.5L10.8615 10.7349C10.9734 10.3431 11.2099 9.99847 11.5352 9.7531C11.8605 9.50773 12.2569 9.375 12.6643 9.375Z" fill="white" stroke="white" stroke-width="2" stroke-linecap="round" stroke-linejoin="round"/>
<path d="M22.5 22.5V26.25C22.5 28.2391 21.7098 30.1468 20.3033 31.5533C18.8968 32.9598 16.9891 33.75 15 33.75C13.0109 33.75 11.1032 32.9598 9.6967 31.5533C8.29018 30.1468 7.5 28.2391 7.5 26.25V22.5" stroke="white" stroke-width="2" stroke-linecap="round" stroke-linejoin="round"/>
<path d="M37.5 22.5V26.25C37.5 28.2391 36.7098 30.1468 35.3033 31.5533C33.8968 32.9598 31.9891 33.75 30 33.75C28.0109 33.75 26.1032 32.9598 24.6967 31.5533C23.2902 30.1468 22.5 28.2391 22.5 26.25V22.5" stroke="white" stroke-width="2" stroke-linecap="round" stroke-linejoin="round"/>
<path d="M52.5 22.5V26.25C52.5 28.2391 51.7098 30.1468 50.3033 31.5533C48.8968 32.9598 46.9891 33.75 45 33.75C43.0109 33.75 41.1032 32.9598 39.6967 31.5533C38.2902 30.1468 37.5 28.2391 37.5 26.25V22.5" stroke="white" stroke-width="2" stroke-linecap="round" stroke-linejoin="round"/>
</svg>
